HIERARCHY
ROOT Hips
{
	OFFSET 0.000000 0.000000 0.000000 
	CHANNELS 6 Xposition Yposition Zposition Yrotation Zrotation Xrotation 
	JOINT Lumbar
	{
		OFFSET 0.000000 0.000000 0.000000 
		CHANNELS 3 Zrotation Xrotation Yrotation
		JOINT Neck
		{
			OFFSET 0.000000 0.445665 0.000000 
			CHANNELS 3 Zrotation Xrotation Yrotation
			End Site
			{
				OFFSET 0.000000 0.227535 0.000000 
			}
		}
		JOINT RightShoulder
		{
			OFFSET 0.019635 0.377685 0.194865 
			CHANNELS 3 Zrotation Xrotation Yrotation
			JOINT RightElbow
			{
				OFFSET 0.000000 -0.243375 0.000000 
				CHANNELS 2 Zrotation Yrotation
				JOINT RightWrist
				{
					OFFSET 0.000000 -0.264825 0.000000 
					CHANNELS 2 Zrotation Xrotation
					End Site
					{
						OFFSET 0.006600 -0.176220 0.000990 
					}
				}
			}
		}
		JOINT LeftShoulder
		{
			OFFSET 0.019635 0.377685 -0.194865 
			CHANNELS 3 Zrotation Xrotation Yrotation
			JOINT LeftElbow
			{
				OFFSET 0.000000 -0.243375 0.000000 
				CHANNELS 2 Zrotation Yrotation
				JOINT LeftWrist
				{
					OFFSET 0.000000 -0.264825 0.000000 
					CHANNELS 2 Zrotation Xrotation
					End Site
					{
						OFFSET 0.006600 -0.176220 -0.000990 
					}
				}
			}
		}
	}
	JOINT RightHip
	{
		OFFSET 0.052140 -0.069960 0.075570 
		CHANNELS 3 Zrotation Xrotation Yrotation
		JOINT RightKnee
		{
			OFFSET 0.000000 -0.402270 0.000000 
			CHANNELS 1 Zrotation
			JOINT RightAnkle
			{
				OFFSET 0.000000 -0.404085 0.000000 
				CHANNELS 3 Zrotation Xrotation Yrotation
				End Site
				{
					OFFSET 0.204105 -0.089430 0.008415 
				}
			}
		}
	}
	JOINT LeftHip
	{
		OFFSET 0.052140 -0.069960 -0.075570 
		CHANNELS 3 Zrotation Xrotation Yrotation
		JOINT LeftKnee
		{
			OFFSET 0.000000 -0.402270 0.000000 
			CHANNELS 1 Zrotation
			JOINT LeftAnkle
			{
				OFFSET 0.000000 -0.404085 0.000000 
				CHANNELS 3 Zrotation Xrotation Yrotation
				End Site
				{
					OFFSET 0.204105 -0.089430 -0.008415 
				}
			}
		}
	}
}
MOTION
Frames: 21
Frame Time: 0.02
-0.29647 -1.03626 0.24234 25.07896 63.26534 -0.51913 19.16024 6.67282 0.12379 -60.90951 -3.38058 -0.83078 -64.40045 11.40186 -71.48744 109.46593 125.31377 85.3134 -22.97512 -64.40038 -11.40178 64.51919 88.60997 -93.52013 39.50438 1.46108 43.4096 -9.732 -16.33178 -0.49164 -42.22408 -8.25623 -10.98862 41.7668 4.08504 22.33061 -0.4896 -29.05983 -10.67403 -5.45287
-0.29624 -1.03634 0.24273 24.71423 62.63949 -0.0907 19.75917 6.63836 0.31323 -60.96856 -3.61759 -0.83078 -64.40045 11.40186 -71.35685 109.50201 125.28648 85.31341 -22.97535 -64.40039 -11.40179 64.48914 88.65545 -93.60732 39.22452 1.39399 44.13009 -9.59297 -16.0018 -0.49162 -41.64688 -8.70501 -10.97985 42.40491 4.10853 22.23077 -0.48995 -29.11914 -10.73424 -5.53033
-0.29596 -1.03646 0.24315 24.3156 61.83397 0.36428 20.52976 6.60196 0.51423 -61.01252 -3.83985 -0.83078 -64.40045 11.40186 -71.20957 109.54052 125.25375 85.3134 -22.97522 -64.40041 -11.40181 64.47225 88.71148 -93.69978 38.98305 1.31582 45.04692 -9.43139 -15.63414 -0.49193 -40.95113 -9.24463 -10.99077 43.2315 4.15424 22.16356 -0.48997 -29.12361 -10.76192 -5.60849
-0.2957 -1.03655 0.24354 23.93956 61.15093 0.79929 21.18253 6.56715 0.70603 -61.06116 -4.06551 -0.83078 -64.40045 11.40186 -71.07482 109.57792 125.22283 85.3134 -22.97522 -64.40042 -11.40182 64.45155 88.76206 -93.78797 38.72865 1.24479 45.82554 -9.28354 -15.2865 -0.49176 -40.3135 -9.74816 -10.99836 43.92906 4.18994 22.0973 -0.49014 -29.15729 -10.81326 -5.69059
-0.29545 -1.03668 0.24399 23.52803 60.29406 1.27368 22.00475 6.52856 0.91705 -61.11988 -4.30557 -0.83078 -64.40045 11.40186 -70.91831 109.61399 125.19395 85.31341 -22.97534 -64.40044 -11.40184 64.42208 88.81525 -93.88424 38.45384 1.16499 46.81234 -9.11981 -14.92254 -0.49294 -39.65359 -10.23464 -10.9832 44.81225 4.2259 21.95662 -0.49036 -29.17652 -10.82535 -5.75377
-0.29517 -1.03673 0.24434 23.18537 59.75409 1.66899 22.5174 6.49796 1.08939 -61.15379 -4.51185 -0.83078 -64.40045 11.40186 -70.80394 109.65435 125.16002 85.3134 -22.97513 -64.40045 -11.40185 64.41337 88.86536 -93.96486 38.231 1.10083 47.4155 -8.98472 -14.58617 -0.49144 -39.01592 -10.77234 -11.01829 45.35617 4.26607 21.97867 -0.49038 -29.21089 -10.90964 -5.85515
-0.2948 -1.03656 0.24438 23.02805 60.17071 1.85287 22.09475 6.4866 1.15726 -61.12167 -4.62967 -0.83078 -64.40044 11.40185 -70.80437 109.70044 125.11118 85.31336 -22.97398 -64.40044 -11.40184 64.46462 88.90693 -94.00114 38.14451 1.08202 46.86385 -8.92806 -14.32254 -0.48189 -38.44012 -11.47939 -11.20554 44.87327 4.31622 22.47988 -0.48987 -29.30697 -11.23236 -6.08346
-0.2944 -1.03631 0.24431 22.94378 60.90575 1.95347 21.36143 6.48401 1.18471 -61.06526 -4.71371 -0.83078 -64.40043 11.40184 -70.84866 109.75176 125.05795 85.31331 -22.97251 -64.40042 -11.40182 64.53524 88.94463 -94.02143 38.10879 1.07942 45.92783 -8.90204 -14.09025 -0.46974 -37.89646 -12.22602 -11.43975 44.05007 4.3692 23.13843 -0.48918 -29.41854 -11.62374 -6.3467
-0.29402 -1.0361 0.24429 22.83579 61.4716 2.08216 20.79444 6.47972 1.22672 -61.02055 -4.81243 -0.83078 -64.40042 11.40183 -70.87692 109.80458 125.00834 85.31326 -22.97123 -64.40041 -11.40181 64.59318 88.9825 -94.04895 38.04861 1.06972 45.19745 -8.86636 -13.85301 -0.45918 -37.35693 -12.9209 -11.64011 43.40998 4.4182 23.70157 -0.48861 -29.51832 -11.96393 -6.57998
-0.2936 -1.03586 0.24429 22.68832 62.13609 2.25132 20.12602 6.4659 1.28449 -60.97227 -4.91362 -0.83078 -64.40041 11.40181 -70.8891 109.84166 124.95174 85.31321 -22.96976 -64.40039 -11.40179 64.66795 89.02742 -94.07689 37.99563 1.05844 44.34138 -8.81271 -13.57733 -0.44691 -36.73375 -13.75918 -11.89238 42.65481 4.47891 24.36592 -0.48787 -29.63627 -12.3872 -6.87208
-0.29326 -1.03568 0.24422 22.63862 62.67106 2.31825 19.59452 6.47378 1.30065 -60.92619 -5.00163 -0.83078 -64.4004 11.40181 -70.94416 109.91204 124.90861 85.31317 -22.96861 -64.40038 -11.40178 64.71208 89.05662 -94.10001 37.93917 1.05453 43.65564 -8.80304 -13.38695 -0.43758 -36.29443 -14.30989 -12.0494 42.0581 4.51618 24.85723 -0.48744 -29.7208 -12.65428 -7.05074
-0.29314 -1.03567 0.24395 22.86134 62.79079 2.10371 19.50005 6.54151 1.20282 -60.88908 -5.06346 -0.83078 -64.4004 11.4018 -71.11762 110.07929 124.90489 85.31316 -22.96842 -64.40039 -11.40179 64.66736 89.04304 -94.11426 37.86164 1.06638 43.51057 -8.91623 -13.44848 -0.43702 -36.35166 -14.03035 -11.91413 41.96171 4.48282 24.82658 -0.48794 -29.70908 -12.47361 -6.90141
-0.29309 -1.03573 0.2436 23.17652 62.76753 1.79248 19.55527 6.63027 1.06594 -60.85549 -5.11307 -0.83078 -64.4004 11.40181 -71.33076 110.27875 124.91479 85.31317 -22.96856 -64.40041 -11.40181 64.59124 89.01374 -94.12408 37.77895 1.08529 43.5522 -9.07119 -13.59078 -0.4395 -36.59369 -13.46391 -11.68408 42.03807 4.42654 24.61779 -0.48875 -29.66353 -12.1342 -6.6381
-0.29302 -1.03578 0.2433 23.43594 62.7958 1.53844 19.55374 6.70823 0.95299 -60.8226 -5.16685 -0.83078 -64.4004 11.40181 -71.51881 110.45935 124.9176 85.31317 -22.96854 -64.40042 -11.40182 64.5288 88.99182 -94.13558 37.6972 1.10135 43.52465 -9.20116 -13.68015 -0.4406 -36.75432 -13.04648 -11.50969 42.04951 4.38416 24.49347 -0.4894 -29.63383 -11.86655 -6.43074
-0.29292 -1.03577 0.24296 23.75502 62.88688 1.22637 19.49856 6.79231 0.81327 -60.77988 -5.22459 -0.83078 -64.4004 11.40181 -71.73829 110.6578 124.92359 85.31317 -22.96855 -64.40044 -11.40184 64.4685 88.9689 -94.14799 37.62123 1.11627 43.42337 -9.35712 -13.83785 -0.44166 -36.90651 -12.55431 -11.28602 41.99733 4.32752 24.35774 -0.49013 -29.60251 -11.60002 -6.20612
-0.29289 -1.03588 0.24267 23.97198 62.8153 1.01232 19.58879 6.86781 0.71963 -60.75786 -5.27248 -0.83078 -64.4004 11.40181 -71.90101 110.82688 124.92679 85.31317 -22.96858 -64.40045 -11.40186 64.39733 88.94421 -94.1576 37.53378 1.13525 43.51781 -9.46901 -13.87353 -0.4435 -37.11798 -12.14607 -11.13909 42.1162 4.29468 24.20403 -0.49076 -29.56648 -11.29616 -5.99114
-0.29304 -1.03628 0.24251 23.8742 62.27346 1.10129 20.09733 6.92041 0.77117 -60.80012 -5.28921 -0.83078 -64.4004 11.40181 -71.89833 110.90474 124.91424 85.31317 -22.96857 -64.40045 -11.40186 64.29259 88.91999 -94.16095 37.39495 1.16189 44.17164 -9.44433 -13.53917 -0.44728 -37.46368 -12.0658 -11.25099 42.7271 4.33679 24.0214 -0.49106 -29.52444 -10.89653 -5.8198
-0.29327 -1.03678 0.24239 23.67191 61.58089 1.29117 20.73948 6.96241 0.86914 -60.86168 -5.298 -0.83078 -64.4004 11.40181 -71.83675 110.95227 124.89926 85.31317 -22.96857 -64.40045 -11.40186 64.18008 88.89424 -94.16161 37.24869 1.19269 45.00687 -9.37459 -13.08147 -0.45167 -37.85987 -12.07475 -11.43884 43.49527 4.40299 23.83058 -0.49124 -29.47904 -10.47013 -5.66387
-0.29346 -1.03722 0.24226 23.52385 60.99367 1.42936 21.28588 7.00545 0.94047 -60.90932 -5.31509 -0.83078 -64.4004 11.40181 -71.8012 111.01519 124.88852 85.31317 -22.96856 -64.40045 -11.40186 64.07831 88.86826 -94.16339 37.11891 1.22267 45.71727 -9.32836 -12.68897 -0.45547 -38.22213 -12.02572 -11.57594 44.15131 4.45576 23.65737 -0.49146 -29.43585 -10.07658 -5.50791
-0.29369 -1.03774 0.2421 23.35097 60.24971 1.58812 21.98162 7.06558 1.03353 -60.97892 -5.31162 -0.83078 -64.4004 11.40181 -71.77012 111.07266 124.86511 85.31317 -22.96856 -64.40045 -11.40186 63.94469 88.84576 -94.16561 36.93241 1.24818 46.60866 -9.27073 -12.26109 -0.46066 -38.63608 -12.04067 -11.77776 44.98088 4.51811 23.4183 -0.49177 -29.38834 -9.59111 -5.31881
-0.29384 -1.03812 0.24201 23.20331 59.79368 1.73004 22.40058 7.0868 1.09323 -61.00716 -5.34964 -0.83078 -64.4004 11.40181 -71.71527 111.1336 124.86719 85.31317 -22.96855 -64.40045 -11.40186 63.8764 88.81571 -94.16611 36.86389 1.28416 47.16909 -9.2257 -11.87607 -0.46311 -38.9534 -11.94682 -11.86474 45.48909 4.56663 23.31814 -0.49185 -29.3498 -9.29165 -5.20354
